<svg width="160" height="160" viewBox="0 0 160 160" fill="none" xmlns="http://www.w3.org/2000/svg">
<rect width="160" height="160" fill="#1F1D1B"/>
<path fill-rule="evenodd" clip-rule="evenodd" d="M139 92.2618C139 106.352 127.186 117.775 112.612 117.775L43.482 117.774C37.6716 117.774 32.376 115.643 28.3858 112.146L61.7467 93.0228C64.8498 91.2441 68.7565 91.7413 71.3152 94.2406L75.824 98.6448C78.5826 101.339 82.871 101.683 86.023 99.4609L126.649 70.8256C133.965 75.3573 139 83.2434 139 92.2618ZM107.637 63.3922C102.879 50.9053 90.4633 42 75.8964 42C57.3417 42 42.2774 56.4487 42.0836 74.3435C30.3185 75.0416 21 84.4878 21 96.0383C21 101.636 23.1884 106.739 26.7831 110.592L61.8894 86.8194C64.8962 84.7832 68.8974 85.0278 71.6339 87.415L74.4774 89.8954C77.8372 92.8264 82.9447 92.445 85.8321 89.0477L107.637 63.3922Z" fill="white"/>
</svg>
